<svg xmlns="http://www.w3.org/2000/svg" viewBox="0 0 64 64"><g id="Expand"><path d="M16.5,51A3.5,3.5,0,1,0,13,47.5,3.5,3.5,0,0,0,16.5,51Zm0-5A1.5,1.5,0,1,1,15,47.5,1.5,1.5,0,0,1,16.5,46Z"/><path d="M55,4H15a5,5,0,0,0-5,5V40H7a3,3,0,0,0-3,3V57a3,3,0,0,0,3,3H21a3,3,0,0,0,3-3V54H55a4.86,4.86,0,0,0,2-.45h0A5,5,0,0,0,60,49V9A5,5,0,0,0,55,4ZM12,9a3,3,0,0,1,3-3H55a3,3,0,0,1,3,3V32.59l-3.46-3.47a5,5,0,0,0-7.08,0L41,35.59l-14-14a5.13,5.13,0,0,0-.78-.63,1.09,1.09,0,0,0-.15-.08,4.22,4.22,0,0,0-.73-.38l-.06,0a4.91,4.91,0,0,0-3.64,0l-.06,0a4.22,4.22,0,0,0-.73.38,1.09,1.09,0,0,0-.15.08,5.13,5.13,0,0,0-.78.63l-8,8ZM6,43a1,1,0,0,1,1-1H21a1,1,0,0,1,1,1V54.59l-.88-.88a3,3,0,0,0-4.24,0l-.88.88-2.29-2.3-1.59-1.58h0l0,0a2.75,2.75,0,0,0-.39-.32l-.11-.07-.08,0h0l-.24-.11-.1-.05a2.67,2.67,0,0,0-.53-.16h-.06a2.32,2.32,0,0,0-.46,0H9.8a1.25,1.25,0,0,0-.19,0l-.24,0a3.06,3.06,0,0,0-.43.13l-.09,0a2.46,2.46,0,0,0-.45.24l-.06,0a3.24,3.24,0,0,0-.46.37h0L6,52.59ZM7,58a1,1,0,0,1-1-1V55.41l3.29-3.29a1,1,0,0,1,.71-.28h0a1,1,0,0,1,.33.06l.08,0a.79.79,0,0,1,.29.18l1.58,1.59L16.59,58Zm14,0H19.41l-2-2,.88-.88a1,1,0,0,1,1.42,0l2.22,2.22A1,1,0,0,1,21,58Zm3-6V43a3,3,0,0,0-.3-1.29h0L26,39.41V40a1,1,0,0,0,2,0V37a1,1,0,0,0-.08-.38,1,1,0,0,0-.54-.54A1,1,0,0,0,27,36H24a1,1,0,0,0,0,2h.59l-2.3,2.29h0A3,3,0,0,0,21,40H12V32.41L21.38,23a3,3,0,0,1,4.24,0l29,29Zm32.8-.61L42.41,37l6.47-6.46a3,3,0,0,1,4.24,0L58,35.41V49A3,3,0,0,1,56.8,51.39Z"/><path d="M48,23a7,7,0,1,0-7-7A7,7,0,0,0,48,23Zm0-12a5,5,0,1,1-5,5A5,5,0,0,1,48,11Z"/></g></svg>