<svg xmlns="http://www.w3.org/2000/svg" viewBox="0 0 64 64"><g id="Expand"><path d="M11.5,45A3.5,3.5,0,1,0,8,41.5,3.5,3.5,0,0,0,11.5,45Zm0-5A1.5,1.5,0,1,1,10,41.5,1.5,1.5,0,0,1,11.5,40Z"/><path d="M29.5,45A3.5,3.5,0,1,0,26,41.5,3.5,3.5,0,0,0,29.5,45Zm0-5A1.5,1.5,0,1,1,28,41.5,1.5,1.5,0,0,1,29.5,40Z"/><path d="M52.5,38A3.5,3.5,0,1,0,56,41.5,3.5,3.5,0,0,0,52.5,38Zm0,5A1.5,1.5,0,1,1,54,41.5,1.5,1.5,0,0,1,52.5,43Z"/><path d="M57,34V11a5,5,0,0,0-5-5H12a5,5,0,0,0-5,5V34a3,3,0,0,0-3,3V51a3,3,0,0,0,3,3h.1A5,5,0,0,0,12,58H52a5,5,0,0,0,4.89-4H57a3,3,0,0,0,3-3V37A3,3,0,0,0,57,34Zm1,3V48.59l-.88-.88a3,3,0,0,0-4.24,0l-.88.88-3.88-3.88h0l-.06,0a3.47,3.47,0,0,0-.43-.35l-.26-.14L47.1,44l-.33-.1-.25-.06-.29,0H45.8a1.25,1.25,0,0,0-.19,0l-.24,0a3.06,3.06,0,0,0-.43.13l-.09,0a2.46,2.46,0,0,0-.45.24l-.06,0a3.24,3.24,0,0,0-.46.37h0L42,46.59V37a1,1,0,0,1,1-1H57A1,1,0,0,1,58,37ZM34.41,52l-2-2,3.88-3.88a1,1,0,0,1,1.42,0L40,48.41V51a1,1,0,0,1-1,1ZM22.62,34.48a2.64,2.64,0,0,0-.29-.15l-.2-.11-.36-.11-.19,0A2.78,2.78,0,0,0,21,34H13.91L23,24.87a1,1,0,0,1,1.42,0L33.59,34H25a2.78,2.78,0,0,0-.58.06l-.19,0-.36.11-.2.11a2.64,2.64,0,0,0-.29.15l-.19.15a1.15,1.15,0,0,0-.19.14,1.15,1.15,0,0,0-.19-.14ZM39,36a1,1,0,0,1,.41.09A1,1,0,0,1,40,37v8.59l-.88-.88a3.06,3.06,0,0,0-4.24,0L31,48.59l-.88-.88h0a3,3,0,0,0-4.24,0h0L24,49.59V37a1,1,0,0,1,1-1Zm3.42-1.94-.09,0,2.46-2.46a1,1,0,0,1,1.42,0L48.59,34H43A2.78,2.78,0,0,0,42.42,34.06ZM27.29,49.12a1,1,0,0,1,1.42,0L31.59,52H25a.94.94,0,0,1-.47-.12ZM42,49.41l3.29-3.29a1.06,1.06,0,0,1,.69-.28l.16,0a.86.86,0,0,1,.23,0,.87.87,0,0,1,.24.15.53.53,0,0,1,.1.06L52.59,52H43a1,1,0,0,1-1-1ZM9,11a3,3,0,0,1,3-3H52a3,3,0,0,1,3,3V34H51.41l-3.79-3.79a3,3,0,0,0-4.24,0l-3.85,3.85A3.07,3.07,0,0,0,39,34H36.41L25.87,23.46a3,3,0,0,0-4.24,0L11.09,34H9ZM6,37a1,1,0,0,1,1-1H21a1,1,0,0,1,1,1V51a1,1,0,0,1-1,1H19.41l-4.29-4.29a3,3,0,0,0-4.24,0L6.66,51.93A1,1,0,0,1,6,51ZM16.59,52H9.41l2.88-2.88a1,1,0,0,1,1.42,0ZM52,56H12a3,3,0,0,1-2.83-2H21a2.84,2.84,0,0,0,.66-.08l.2-.06a2.14,2.14,0,0,0,.42-.16l.2-.11a2.64,2.64,0,0,0,.35-.23l.17-.14A3,3,0,0,0,25,54H39a3,3,0,0,0,2-.78A3,3,0,0,0,43,54H54.82l-.09.23A3,3,0,0,1,52,56Zm5-4H55.41l-2-2,.88-.88a1,1,0,0,1,1.42,0l2.22,2.22A1,1,0,0,1,57,52Z"/><path d="M45,25a7,7,0,1,0-7-7A7,7,0,0,0,45,25Zm0-12a5,5,0,1,1-5,5A5,5,0,0,1,45,13Z"/></g></svg>