<?xml version="1.0" encoding="UTF-8"?><svg id="Expanded" xmlns="http://www.w3.org/2000/svg" viewBox="0 0 64 64"><path d="m47,4h-30c-3.85986,0-7,3.14014-7,7v42c0,3.85986,3.14014,7,7,7h30c3.85986,0,7-3.14014,7-7V11c0-3.85986-3.14014-7-7-7Zm-6.47461,2l-.84033,2.10986c-.45703,1.14844-1.55127,1.89014-2.78711,1.89014h-9.7959c-1.23584,0-2.33008-.7417-2.78711-1.89014l-.84033-2.10986h17.05078Zm11.47461,47c0,2.75684-2.24316,5-5,5h-30c-2.75684,0-5-2.24316-5-5V11c0-2.75684,2.24316-5,5-5h4.32159l1.13495,2.8501c.76221,1.91357,2.58545,3.1499,4.64551,3.1499h9.7959c2.06006,0,3.8833-1.23633,4.64551-3.1499l1.13495-2.8501h4.32159c2.75684,0,5,2.24316,5,5v42Z"/><path d="m19,29v-5c0-1.6543,1.3457-3,3-3h5c1.32306,0,1.32306-2,0-2h-5c-2.75684,0-5,2.24316-5,5v5c0,1.32306,2,1.32306,2,0Z"/><path d="m42,19h-5c-1.32306,0-1.32306,2,0,2h5c1.6543,0,3,1.3457,3,3v5c0,1.32306,2,1.32306,2,0v-5c0-2.75684-2.24316-5-5-5Z"/><path d="m45,39v5c0,1.6543-1.3457,3-3,3h-5c-1.32306,0-1.32306,2,0,2h5c2.75684,0,5-2.24316,5-5v-5c0-1.32306-2-1.32306-2,0Z"/><path d="m27,47h-5c-1.6543,0-3-1.3457-3-3v-5c0-1.32306-2-1.32306-2,0v5c0,2.75684,2.24316,5,5,5h5c.55225,0,1-.44775,1-1s-.44775-1-1-1Z"/><path d="m32,33c-1.6543,0-3-1.3457-3-3,0-1.68003,1.36671-3,3-3h4c1.32306,0,1.32306-2,0-2h-3v-2c0-1.32306-2-1.32306-2,0v2.10278c-.94745.19318-1.8255.65833-2.54199,1.36499-3.1309,3.1748-.88257,8.53223,3.54199,8.53223.79541,0,1.55127.31348,2.11816.87207,1.88798,1.91556.54147,5.12793-2.11816,5.12793h-4c-1.32306,0-1.32306,2,0,2h3v2c0,1.32306,2,1.32306,2,0v-2.10107c2.2793-.46466,4-2.4845,4-4.89893,0-2.75785-2.23719-5-5-5Z"/></svg>