<?xml version="1.0" encoding="UTF-8"?>
<svg id="Expanded" xmlns="http://www.w3.org/2000/svg" viewBox="0 0 64 64">
  <path d="M47.61,18.66c-7.41,0-8.89.35-8.63-1.17.98-5.89-.47-14.09-6.02-13.46-7.8.86.69,12.13-8.52,20.62-.43-1.13-1.52-1.94-2.8-1.94h-7.63c-1.65,0-3,1.35-3,3v17.29c0,1.65,1.35,3,3,3h7.63c1.36,0,2.51-.92,2.87-2.17,4.15,2.89,3.55,2.17,19.13,2.17,3.81,0,5.51-2.49,5.03-5.97,2.53-1.37,3.23-3.76,2.29-6.33,2.59-1.66,2.53-4.4.83-6.96,2.92-3.18.09-8.08-4.18-8.08ZM22.63,43c0,.55-.45,1-1,1h-7.63c-.55,0-1-.45-1-1v-17.29c0-.55.45-1,1-1h7.63c.55,0,1,.45,1,1v17.29ZM50.96,30.64c-.33,1.51-1.96,1.42-2.24,2.33-.26.83,2.41,3.93-1.56,5.57-1.46.6.43,2.72-.94,4.51-1.02,1.34-2.27.95-16.76.95-.94,0-2.72-.95-4.82-2.55v-14.35c5.74-4.47,6.68-9.78,6.59-16.55-.05-3.61.1-4.33,1.95-4.53,3.8-.45,4.55,6.79,3.83,11.15-.31,1.84,1.09,3.5,2.87,3.5h7.73c1.7,0,2.87,1.17,3.23,2.26.86,2.57-2.39,2.94-1.15,4.35.44.51,1.54,2.1,1.26,3.37Z"/>
  <path d="M14,15c0-1.58-1.7-2.21-2.25-2.75-.54-.54-1.18-2.25-2.75-2.25-1.78,0-1.92,1.71-3.34,2.69-3.94,2.68.24,4.73.59,5.07.54.54,1.18,2.25,2.75,2.25,1.18,0,1.84-.96,2.31-1.66.97-1.42,2.69-1.58,2.69-3.34ZM9,18c-.16-.04-.5-.54-.66-.78-1.1-1.62-2.23-1.81-2.34-2.21.09-.36,1.29-.68,2.34-2.22.16-.24.51-.74.66-.78.36.09.68,1.29,2.22,2.34.24.16.74.5.78.66-.04.16-.54.5-.78.66-1.54,1.05-1.84,2.24-2.21,2.34Z"/>
  <path d="M57.27,6.73c-.68-.68-1.45-2.73-3.27-2.73-2,0-2.28,2.11-4.04,3.32-4.65,3.18.23,5.4.77,5.95.68.68,1.45,2.73,3.27,2.73s2.58-2.05,3.27-2.73c.68-.68,2.73-1.45,2.73-3.27s-2.05-2.58-2.73-3.27ZM55.03,12.91c-.99,1.44-1.08,1.44-2.06,0-2.01-2.94-4.4-2.22-1.88-3.94,2.9-1.98,2.22-4.4,3.94-1.88,1.41,2.06,2.97,2.27,2.97,2.91s-1.55.84-2.97,2.91Z"/>
  <path d="M30.27,50.73c-.68-.68-1.45-2.73-3.27-2.73s-2.58,2.05-3.27,2.73c-.68.68-2.73,1.45-2.73,3.27s2.05,2.58,2.73,3.27c.18.18.38.47.58.77,3.18,4.65,5.4-.23,5.95-.77.68-.68,2.73-1.45,2.73-3.27s-2.05-2.58-2.73-3.27ZM28.03,56.91c-.99,1.44-1.08,1.44-2.06,0-2.01-2.94-4.4-2.22-1.88-3.94,2.9-1.98,2.22-4.4,3.94-1.88,1.41,2.06,2.97,2.27,2.97,2.91s-1.55.84-2.97,2.91Z"/>
  <path d="M37,26.63c-3.89-2.6-8.11,2.99-4.88,6.51l4.14,4.53c.4.43,1.08.43,1.48,0l4.14-4.53c1.48-1.62,1.48-4.26,0-5.88-1.36-1.48-3.41-1.62-4.88-.63ZM40.4,31.79l-3.4,3.72-3.4-3.72c-1.84-2.02.85-5.17,2.67-3.18.38.41,1.1.41,1.48,0,.72-.79,1.94-.79,2.67,0,.79.86.79,2.32,0,3.18Z"/>
</svg>